# File units = meters
mtllib Test Cube.mtl
g Test Cube
v 0.299711 0.0456679 0.203183 
v 0.299711 0.0456679 0.178183 
v 0.299711 0.0706679 0.178183 
v 0.299711 0.0706679 0.203183 
v 0.274711 0.0706679 0.178183 
v 0.274711 0.0706679 0.203183 
v 0.274711 0.0456679 0.178183 
v 0.274711 0.0456679 0.203183 
vn 1 0 6.88754e-49 
vn 0 1 -1.12482e-32 
vn -1 0 -6.88754e-49 
vn 0 -1 1.12482e-32 
vn -6.88754e-49 1.12482e-32 1 
vn 6.88754e-49 -1.12482e-32 -1 
usemtl 0.615686_0.811765_0.929412_0.000000_0.000000
o mesh0
f 1//1 2//1 3//1 
f 3//1 4//1 1//1 
o mesh1
f 4//2 3//2 5//2 
f 5//2 6//2 4//2 
o mesh2
f 6//3 5//3 7//3 
f 7//3 8//3 6//3 
o mesh3
f 8//4 7//4 2//4 
f 2//4 1//4 8//4 
o mesh4
f 8//5 1//5 4//5 
f 4//5 6//5 8//5 
o mesh5
f 5//6 3//6 2//6 
f 2//6 7//6 5//6 
